<?xml version='1.0' encoding='utf-8'?>
<svg xmlns="http://www.w3.org/2000/svg" width="1024pt" height="1024pt" viewBox="0 0 1024 1024" version="1.1"> <g id="#c7507cff"> <path fill="#c7507c" opacity="1.00" d=" M 275.74 0.00 L 751.98 0.00 C 762.27 0.78 772.66 0.37 782.98 1.07 C 810.46 2.10 838.10 4.87 864.58 12.63 C 902.89 23.69 938.02 45.60 964.63 75.32 C 986.73 99.73 1002.95 129.37 1011.91 161.04 C 1022.56 198.20 1023.21 237.17 1024.00 275.51 L 1024.00 748.50 C 1023.43 774.04 1023.10 799.68 1019.66 825.04 C 1016.85 846.38 1011.74 867.50 1003.44 887.39 C 988.90 922.50 964.86 953.60 934.49 976.45 C 915.31 990.97 893.66 1002.19 870.77 1009.59 C 831.43 1022.40 789.63 1023.27 748.65 1024.00 L 275.12 1024.00 C 241.86 1023.53 208.30 1022.80 175.66 1015.69 C 149.53 1010.07 124.33 999.87 101.94 985.23 C 71.68 965.60 46.52 938.19 29.57 906.36 C 19.23 887.13 12.02 866.28 7.71 844.90 C 1.32 814.17 0.91 782.65 0.00 751.42 L 0.00 277.06 C 0.58 274.09 0.14 271.04 0.34 268.04 C 0.98 228.99 2.62 189.22 15.05 151.84 C 27.50 114.01 50.69 79.79 81.30 54.31 C 109.45 30.56 143.90 14.67 179.99 7.65 C 200.44 3.57 221.27 1.77 242.08 1.10 C 253.28 0.28 264.57 0.77 275.74 0.00 M 379.65 137.90 C 352.62 138.86 325.40 140.02 298.97 146.22 C 266.50 153.71 234.98 167.65 209.93 189.96 C 192.55 205.20 177.41 223.19 166.56 243.67 C 156.61 262.45 149.60 282.74 145.23 303.53 C 139.78 328.98 138.78 355.07 137.90 381.01 C 136.62 411.00 136.93 441.02 136.66 471.03 C 136.76 523.03 136.32 575.04 137.32 627.03 C 138.37 654.55 138.57 682.24 143.12 709.48 C 146.44 729.71 152.19 749.56 160.56 768.28 C 174.88 800.86 199.23 828.60 228.46 848.66 C 255.42 866.63 286.97 877.19 318.58 881.88 C 321.18 883.02 324.26 881.90 326.82 883.22 C 330.17 883.72 333.68 883.20 336.93 884.31 C 341.56 884.68 346.29 884.35 350.86 885.35 C 356.90 885.45 362.94 885.70 368.98 885.85 C 381.88 887.21 395.05 886.18 407.95 887.41 C 461.95 887.71 515.97 887.69 569.98 887.51 C 600.66 887.46 631.33 887.03 661.97 885.46 C 686.62 884.53 711.35 881.86 735.19 875.29 C 755.03 869.74 774.35 861.89 791.79 850.84 C 809.00 839.90 824.21 825.97 837.28 810.35 C 850.68 794.38 860.96 775.93 868.29 756.45 C 877.01 733.90 881.68 709.98 883.90 685.96 C 886.26 654.36 887.01 622.64 887.21 590.96 C 887.43 557.98 887.46 525.01 887.45 492.04 C 887.26 447.09 887.63 402.11 885.17 357.21 C 883.70 318.24 876.19 278.82 857.76 244.12 C 846.76 223.22 831.30 204.88 813.53 189.41 C 785.89 165.07 750.64 150.80 714.74 144.07 C 686.81 138.76 658.30 138.50 629.99 137.40 C 579.32 136.27 528.64 136.73 477.97 136.62 C 445.19 136.78 412.40 136.61 379.65 137.90 Z"/> <path fill="#c7507c" opacity="1.00" d=" M 435.26 204.47 C 487.85 204.19 540.45 204.16 593.05 204.51 C 618.70 204.70 644.35 205.41 669.97 206.84 C 695.88 208.36 722.07 213.03 745.47 224.72 C 760.70 232.16 773.75 243.47 784.69 256.30 C 793.61 266.71 800.26 278.90 805.06 291.71 C 813.23 312.83 816.29 335.52 817.47 358.02 C 820.27 410.98 819.69 464.03 819.81 517.05 C 819.76 558.70 820.02 600.36 818.54 641.99 C 817.52 670.07 816.59 698.68 807.54 725.56 C 802.62 740.35 795.71 754.67 785.65 766.68 C 775.59 778.64 763.82 789.40 750.07 796.96 C 726.22 810.05 698.98 815.39 672.06 817.10 C 637.42 819.17 602.71 819.61 568.02 819.66 C 520.68 819.68 473.34 819.73 426.00 819.39 C 416.33 819.21 406.64 819.37 396.99 818.76 C 389.66 818.50 382.28 818.71 375.00 817.86 C 351.28 817.42 327.35 815.74 304.45 809.17 C 286.64 803.95 269.27 796.06 255.28 783.66 C 241.07 771.56 229.14 756.53 221.87 739.26 C 212.34 717.78 208.41 694.29 206.92 670.97 C 203.88 619.02 204.40 566.96 204.25 514.95 C 204.38 460.64 203.75 406.27 206.95 352.03 C 208.69 325.12 214.01 297.87 227.11 274.03 C 236.16 257.84 249.27 244.10 264.23 233.25 C 288.44 216.52 318.02 209.72 346.97 207.34 C 376.35 205.34 405.81 204.70 435.26 204.47 M 704.43 267.26 C 685.88 270.36 670.37 286.23 667.87 304.89 C 665.50 319.51 671.04 335.05 682.04 344.94 C 691.79 353.92 705.65 358.25 718.76 356.25 C 730.34 354.72 741.13 348.33 748.20 339.07 C 755.39 329.77 758.68 317.57 757.12 305.92 C 755.50 291.98 746.77 279.18 734.54 272.35 C 725.50 267.19 714.66 265.49 704.43 267.26 M 497.62 319.81 C 459.83 322.43 423.00 336.78 393.24 360.19 C 361.95 384.62 338.46 418.92 327.23 457.02 C 315.26 497.08 316.78 541.04 331.61 580.14 C 345.37 616.78 370.66 648.95 402.96 671.05 C 438.89 695.92 483.52 707.82 527.07 704.24 C 566.31 701.36 604.47 685.86 634.73 660.73 C 666.04 634.96 688.91 599.10 698.84 559.77 C 708.81 520.88 706.26 478.88 691.51 441.52 C 677.03 404.49 650.71 372.26 617.40 350.56 C 582.31 327.49 539.48 316.49 497.62 319.81 Z"/> <path fill="#c7507c" opacity="1.00" d=" M 497.43 387.78 C 532.03 383.47 568.14 394.67 594.29 417.73 C 610.34 431.74 622.78 449.89 629.92 469.97 C 642.29 504.19 638.70 543.77 620.14 575.10 C 603.52 603.72 575.13 625.25 543.00 633.29 C 517.04 639.92 488.96 637.98 464.22 627.68 C 433.06 614.91 407.64 588.99 395.47 557.60 C 381.50 522.37 384.78 480.84 404.30 448.34 C 423.72 415.17 459.16 391.89 497.43 387.78 Z"/> </g> <g id="#fffbf2ff"> <path fill="#fffbf2" opacity="1.00" d=" M 379.65 137.90 C 412.40 136.61 445.19 136.78 477.97 136.62 C 528.64 136.73 579.32 136.27 629.99 137.40 C 658.30 138.50 686.81 138.76 714.74 144.07 C 750.64 150.80 785.89 165.07 813.53 189.41 C 831.30 204.88 846.76 223.22 857.76 244.12 C 876.19 278.82 883.70 318.24 885.17 357.21 C 887.63 402.11 887.26 447.09 887.45 492.04 C 887.46 525.01 887.43 557.98 887.21 590.96 C 887.01 622.64 886.26 654.36 883.90 685.96 C 881.68 709.98 877.01 733.90 868.29 756.45 C 860.96 775.93 850.68 794.38 837.28 810.35 C 824.21 825.97 809.00 839.90 791.79 850.84 C 774.35 861.89 755.03 869.74 735.19 875.29 C 711.35 881.86 686.62 884.53 661.97 885.46 C 631.33 887.03 600.66 887.46 569.98 887.51 C 515.97 887.69 461.95 887.71 407.95 887.41 C 395.05 886.18 381.88 887.21 368.98 885.85 C 362.94 885.70 356.90 885.45 350.86 885.35 C 346.29 884.35 341.56 884.68 336.93 884.31 C 333.68 883.20 330.17 883.72 326.82 883.22 C 324.26 881.90 321.18 883.02 318.58 881.88 C 286.97 877.19 255.42 866.63 228.46 848.66 C 199.23 828.60 174.88 800.86 160.56 768.28 C 152.19 749.56 146.44 729.71 143.12 709.48 C 138.57 682.24 138.37 654.55 137.32 627.03 C 136.32 575.04 136.76 523.03 136.66 471.03 C 136.93 441.02 136.62 411.00 137.90 381.01 C 138.78 355.07 139.78 328.98 145.23 303.53 C 149.60 282.74 156.61 262.45 166.56 243.67 C 177.41 223.19 192.55 205.20 209.93 189.96 C 234.98 167.65 266.50 153.71 298.97 146.22 C 325.40 140.02 352.62 138.86 379.65 137.90 M 435.26 204.47 C 405.81 204.70 376.35 205.34 346.97 207.34 C 318.02 209.72 288.44 216.52 264.23 233.25 C 249.27 244.10 236.16 257.84 227.11 274.03 C 214.01 297.87 208.69 325.12 206.95 352.03 C 203.75 406.27 204.38 460.64 204.25 514.95 C 204.40 566.96 203.88 619.02 206.92 670.97 C 208.41 694.29 212.34 717.78 221.87 739.26 C 229.14 756.53 241.07 771.56 255.28 783.66 C 269.27 796.06 286.64 803.95 304.45 809.17 C 327.35 815.74 351.28 817.42 375.00 817.86 C 382.28 818.71 389.66 818.50 396.99 818.76 C 406.64 819.37 416.33 819.21 426.00 819.39 C 473.34 819.73 520.68 819.68 568.02 819.66 C 602.71 819.61 637.42 819.17 672.06 817.10 C 698.98 815.39 726.22 810.05 750.07 796.96 C 763.82 789.40 775.59 778.64 785.65 766.68 C 795.71 754.67 802.62 740.35 807.54 725.56 C 816.59 698.68 817.52 670.07 818.54 641.99 C 820.02 600.36 819.76 558.70 819.81 517.05 C 819.69 464.03 820.27 410.98 817.47 358.02 C 816.29 335.52 813.23 312.83 805.06 291.71 C 800.26 278.90 793.61 266.71 784.69 256.30 C 773.75 243.47 760.70 232.16 745.47 224.72 C 722.07 213.03 695.88 208.36 669.97 206.84 C 644.35 205.41 618.70 204.70 593.05 204.51 C 540.45 204.16 487.85 204.19 435.26 204.47 Z"/> <path fill="#fffbf2" opacity="1.00" d=" M 704.43 267.26 C 714.66 265.49 725.50 267.19 734.54 272.35 C 746.77 279.18 755.50 291.98 757.12 305.92 C 758.68 317.57 755.39 329.77 748.20 339.07 C 741.13 348.33 730.34 354.72 718.76 356.25 C 705.65 358.25 691.79 353.92 682.04 344.94 C 671.04 335.05 665.50 319.51 667.87 304.89 C 670.37 286.23 685.88 270.36 704.43 267.26 Z"/> <path fill="#fffbf2" opacity="1.00" d=" M 497.62 319.81 C 539.48 316.49 582.31 327.49 617.40 350.56 C 650.71 372.26 677.03 404.49 691.51 441.52 C 706.26 478.88 708.81 520.88 698.84 559.77 C 688.91 599.10 666.04 634.96 634.73 660.73 C 604.47 685.86 566.31 701.36 527.07 704.24 C 483.52 707.82 438.89 695.92 402.96 671.05 C 370.66 648.95 345.37 616.78 331.61 580.14 C 316.78 541.04 315.26 497.08 327.23 457.02 C 338.46 418.92 361.95 384.62 393.24 360.19 C 423.00 336.78 459.83 322.43 497.62 319.81 M 497.43 387.78 C 459.16 391.89 423.72 415.17 404.30 448.34 C 384.78 480.84 381.50 522.37 395.47 557.60 C 407.64 588.99 433.06 614.91 464.22 627.68 C 488.96 637.98 517.04 639.92 543.00 633.29 C 575.13 625.25 603.52 603.72 620.14 575.10 C 638.70 543.77 642.29 504.19 629.92 469.97 C 622.78 449.89 610.34 431.74 594.29 417.73 C 568.14 394.67 532.03 383.47 497.43 387.78 Z"/> </g> </svg>